<?xml version="1.0" encoding="utf-8"?>
<!-- Generator: Adobe Illustrator 22.1.0, SVG Export Plug-In . SVG Version: 6.00 Build 0)  -->
<svg version="1.1" id="Layer_1" xmlns="http://www.w3.org/2000/svg" xmlns:xlink="http://www.w3.org/1999/xlink" x="0px" y="0px"
	 viewBox="0 0 246.3 191" style="enable-background:new 0 0 246.3 191;" xml:space="preserve">
<style type="text/css">
	.st0{fill:url(#SVGID_1_);}
	.st1{display:none;fill:url(#SVGID_2_);}
	.st2{display:none;fill:url(#SVGID_3_);}
	.st3{display:none;fill:url(#SVGID_4_);}
	.st4{display:none;fill:url(#SVGID_5_);}
</style>
<linearGradient id="SVGID_1_" gradientUnits="userSpaceOnUse" x1="188.954" y1="44.2782" x2="57.3753" y2="146.7094">
	<stop  offset="0" style="stop-color:#EE4023"/>
	<stop  offset="0.5222" style="stop-color:#EC1B2E"/>
	<stop  offset="1" style="stop-color:#9C1521"/>
</linearGradient>
<path class="st0" d="M82.4,122.6c0.1-3,1.4-5.8,3.4-7.8l0,0l36.1-35.4l-25.9,0c-6.2,0-11.7-4.8-11.9-11c-0.2-6.5,5-11.7,11.4-11.7
	l54.7,0c6.4,0,12,5.2,11.9,11.6c0,3-1.3,5.7-3.2,7.7l0,0l-0.1,0.1c0,0-0.1,0.1-0.1,0.1l-36,35.5h30.3c22.8,0,41.3-18.5,41.3-41.3
	v-5.1c0-22.5-18.3-40.8-40.8-40.8H92.9c-22.5,0-40.8,18.3-40.8,40.8v60.7c0,22.5,18.3,40.8,40.8,40.8h60.6c19.6,0,36-13.8,39.9-32.2
	H94.3C87.8,134.4,82.2,129.1,82.4,122.6z"/>
<linearGradient id="SVGID_2_" gradientUnits="userSpaceOnUse" x1="47.872" y1="75.3212" x2="198.4458" y2="115.6673">
	<stop  offset="0" style="stop-color:#1FC3F3"/>
	<stop  offset="0.5222" style="stop-color:#0074BB"/>
	<stop  offset="1" style="stop-color:#223C8C"/>
</linearGradient>
<path class="st1" d="M82.4,122.6c0.1-3,1.4-5.8,3.4-7.8l0,0l36.1-35.4l-25.9,0c-6.2,0-11.7-4.8-11.9-11c-0.2-6.5,5-11.7,11.4-11.7
	l54.7,0c6.4,0,12,5.2,11.9,11.6c0,3-1.3,5.7-3.2,7.7l0,0l-0.1,0.1c0,0-0.1,0.1-0.1,0.1l-36,35.5h30.3c22.8,0,41.3-18.5,41.3-41.3
	v-5.1c0-22.5-18.3-40.8-40.8-40.8H92.9c-22.5,0-40.8,18.3-40.8,40.8v60.7c0,22.5,18.3,40.8,40.8,40.8h60.6c19.6,0,36-13.8,39.9-32.2
	H94.3C87.8,134.4,82.2,129.1,82.4,122.6z"/>
<linearGradient id="SVGID_3_" gradientUnits="userSpaceOnUse" x1="47.872" y1="75.3212" x2="198.4458" y2="115.6673">
	<stop  offset="0" style="stop-color:#8BC53F"/>
	<stop  offset="0.5222" style="stop-color:#20A247"/>
	<stop  offset="1" style="stop-color:#006231"/>
</linearGradient>
<path class="st2" d="M82.4,122.6c0.1-3,1.4-5.8,3.4-7.8l0,0l36.1-35.4l-25.9,0c-6.2,0-11.7-4.8-11.9-11c-0.2-6.5,5-11.7,11.4-11.7
	l54.7,0c6.4,0,12,5.2,11.9,11.6c0,3-1.3,5.7-3.2,7.7l0,0l-0.1,0.1c0,0-0.1,0.1-0.1,0.1l-36,35.5h30.3c22.8,0,41.3-18.5,41.3-41.3
	v-5.1c0-22.5-18.3-40.8-40.8-40.8H92.9c-22.5,0-40.8,18.3-40.8,40.8v60.7c0,22.5,18.3,40.8,40.8,40.8h60.6c19.6,0,36-13.8,39.9-32.2
	H94.3C87.8,134.4,82.2,129.1,82.4,122.6z"/>
<linearGradient id="SVGID_4_" gradientUnits="userSpaceOnUse" x1="47.872" y1="75.3212" x2="198.4458" y2="115.6673">
	<stop  offset="0" style="stop-color:#BC2E90"/>
	<stop  offset="0.5222" style="stop-color:#90278E"/>
	<stop  offset="1" style="stop-color:#4B277A"/>
</linearGradient>
<path class="st3" d="M82.4,122.6c0.1-3,1.4-5.8,3.4-7.8l0,0l36.1-35.4l-25.9,0c-6.2,0-11.7-4.8-11.9-11c-0.2-6.5,5-11.7,11.4-11.7
	l54.7,0c6.4,0,12,5.2,11.9,11.6c0,3-1.3,5.7-3.2,7.7l0,0l-0.1,0.1c0,0-0.1,0.1-0.1,0.1l-36,35.5h30.3c22.8,0,41.3-18.5,41.3-41.3
	v-5.1c0-22.5-18.3-40.8-40.8-40.8H92.9c-22.5,0-40.8,18.3-40.8,40.8v60.7c0,22.5,18.3,40.8,40.8,40.8h60.6c19.6,0,36-13.8,39.9-32.2
	H94.3C87.8,134.4,82.2,129.1,82.4,122.6z"/>
<linearGradient id="SVGID_5_" gradientUnits="userSpaceOnUse" x1="47.872" y1="75.3212" x2="198.4458" y2="115.6673">
	<stop  offset="0" style="stop-color:#FAAF40"/>
	<stop  offset="0.522" style="stop-color:#F16522"/>
	<stop  offset="1" style="stop-color:#E23D21"/>
</linearGradient>
<path class="st4" d="M82.4,122.6c0.1-3,1.4-5.8,3.4-7.8l0,0l36.1-35.4l-25.9,0c-6.2,0-11.7-4.8-11.9-11c-0.2-6.5,5-11.7,11.4-11.7
	l54.7,0c6.4,0,12,5.2,11.9,11.6c0,3-1.3,5.7-3.2,7.7l0,0l-0.1,0.1c0,0-0.1,0.1-0.1,0.1l-36,35.5h30.3c22.8,0,41.3-18.5,41.3-41.3
	v-5.1c0-22.5-18.3-40.8-40.8-40.8H92.9c-22.5,0-40.8,18.3-40.8,40.8v60.7c0,22.5,18.3,40.8,40.8,40.8h60.6c19.6,0,36-13.8,39.9-32.2
	H94.3C87.8,134.4,82.2,129.1,82.4,122.6z"/>
</svg>
